<?xml version="1.0" standalone="no"?>
<!DOCTYPE svg PUBLIC "-//W3C//DTD SVG 20010904//EN"
 "http://www.w3.org/TR/2001/REC-SVG-20010904/DTD/svg10.dtd">
<svg version="1.0" xmlns="http://www.w3.org/2000/svg"
 width="1250.000000pt" height="1280.000000pt" viewBox="0 0 1250.000000 1280.000000"
 preserveAspectRatio="xMidYMid meet">
<metadata>
Created by potrace 1.15, written by Peter Selinger 2001-2017
</metadata>
<g transform="translate(0.000000,1280.000000) scale(0.100000,-0.100000)"
fill="#000000" stroke="none">
<path d="M4795 12794 c-489 -31 -879 -91 -1061 -164 -297 -118 -807 -515
-1396 -1087 -209 -203 -457 -457 -563 -578 l-57 -64 41 -223 c84 -463 393
-2405 571 -3588 16 -107 57 -375 90 -595 168 -1112 385 -2606 411 -2833 6 -58
8 -107 3 -112 -32 -29 -375 -154 -624 -226 -317 -93 -587 -145 -755 -146 -95
-1 -105 1 -187 36 -49 21 -88 42 -88 46 0 4 10 10 23 14 33 8 195 162 217 207
53 102 -12 229 -116 229 -53 0 -99 -22 -187 -89 -123 -94 -166 -111 -187 -72
-5 11 -10 62 -10 113 0 107 -16 186 -51 248 -35 63 -70 85 -132 85 -140 -2
-237 -136 -237 -329 0 -85 -14 -129 -42 -134 -9 -2 -48 23 -86 55 -153 128
-270 146 -316 49 -38 -81 -13 -133 144 -295 99 -101 119 -126 109 -138 -7 -8
-58 -42 -113 -76 -115 -70 -181 -129 -191 -170 -10 -38 11 -83 45 -97 36 -15
70 -8 180 36 122 49 152 53 184 21 14 -15 26 -33 26 -42 0 -8 -20 -68 -45
-133 -80 -207 -84 -300 -13 -335 34 -17 39 -17 77 -1 69 27 132 115 176 244
29 85 49 120 70 120 8 0 39 -42 69 -93 71 -120 130 -200 195 -264 58 -57 99
-78 136 -69 43 11 44 32 4 286 -9 57 -3 168 12 207 13 34 30 28 68 -23 81
-111 221 -132 1379 -210 50 -4 92 -7 92 -8 0 -1 -20 -90 -44 -199 -84 -370
-101 -553 -61 -632 503 -983 719 -1369 868 -1552 60 -73 82 -82 257 -107 203
-30 401 -38 1055 -43 l661 -5 17 55 c47 150 255 336 529 473 129 64 241 104
297 104 75 0 231 -72 496 -228 241 -143 568 -367 629 -431 l30 -31 130 0 c688
1 2111 238 3871 646 484 112 947 233 1005 262 62 31 100 79 100 126 0 79 -103
212 -210 270 -50 27 -56 28 -139 22 -101 -8 -100 -8 -199 115 -77 96 -132 145
-247 221 -286 190 -756 361 -1447 528 -292 71 -498 114 -1073 225 -275 53
-548 107 -606 121 l-106 25 -64 73 c-35 41 -140 155 -233 254 -494 529 -720
931 -790 1407 -114 763 68 2150 505 3855 223 867 524 1812 669 2100 17 33 30
65 30 73 0 28 -122 258 -195 367 -209 314 -532 646 -923 953 -464 364 -970
681 -1533 961 -258 128 -335 158 -459 176 -75 11 -571 21 -685 14z"/>
</g>
</svg>
