<?xml version="1.0" encoding="utf-8"?>
<!-- Generator: Adobe Illustrator 26.5.0, SVG Export Plug-In . SVG Version: 6.00 Build 0)  -->
<svg version="1.1" id="Layer_1" xmlns="http://www.w3.org/2000/svg" xmlns:xlink="http://www.w3.org/1999/xlink" x="0px" y="0px"
	 viewBox="0 0 1250 1280" style="enable-background:new 0 0 1250 1280;" xml:space="preserve">
<g transform="translate(0.000000,1280.000000) scale(0.100000,-0.100000)">
	<path d="M4793.8,12666.3c-489-31-879-91-1061-164c-297-118-807-515-1396-1087c-209-203-457-457-563-578l-57-64l41-223
		c84-463,393-2405,571-3588c16-107,57-375,90-595c168-1112,385-2606,411-2833c6-58,8-107,3-112c-32-29-375-154-624-226
		c-317-93-587-145-755-146c-95-1-105,1-187,36c-49,21-88,42-88,46s10,10,23,14c33,8,195,162,217,207c53,102-12,229-116,229
		c-53,0-99-22-187-89c-123-94-166-111-187-72c-5,11-10,62-10,113c0,107-16,186-51,248c-35,63-70,85-132,85c-140-2-237-136-237-329
		c0-85-14-129-42-134c-9-2-48,23-86,55c-153,128-270,146-316,49c-38-81-13-133,144-295c99-101,119-126,109-138c-7-8-58-42-113-76
		c-115-70-181-129-191-170c-10-38,11-83,45-97c36-15,70-8,180,36c122,49,152,53,184,21c14-15,26-33,26-42c0-8-20-68-45-133
		c-80-207-84-300-13-335c34-17,39-17,77-1c69,27,132,115,176,244c29,85,49,120,70,120c8,0,39-42,69-93c71-120,130-200,195-264
		c58-57,99-78,136-69c43,11,44,32,4,286c-9,57-3,168,12,207c13,34,30,28,68-23c81-111,221-132,1379-210c50-4,92-7,92-8
		s-20-90-44-199c-84-370-101-553-61-632c503-983,719-1369,868-1552c60-73,82-82,257-107c203-30,401-38,1055-43l661-5l17,55
		c47,150,255,336,529,473c129,64,241,104,297,104c75,0,231-72,496-228c241-143,568-367,629-431l30-31h130c688,1,2111,238,3871,646
		c484,112,947,233,1005,262c62,31,100,79,100,126c0,79-103,212-210,270c-50,27-56,28-139,22c-101-8-100-8-199,115
		c-77,96-132,145-247,221c-286,190-756,361-1447,528c-292,71-498,114-1073,225c-275,53-548,107-606,121l-106,25l-64,73
		c-35,41-140,155-233,254c-494,529-720,931-790,1407c-114,763,68,2150,505,3855c223,867,524,1812,669,2100c17,33,30,65,30,73
		c0,28-122,258-195,367c-209,314-532,646-923,953c-464,364-970,681-1533,961c-258,128-335,158-459,176
		C5403.8,12663.3,4907.8,12673.3,4793.8,12666.3z"/>
</g>
</svg>
